<svg width="130" height="21" viewBox="0 0 130 21" fill="none" xmlns="http://www.w3.org/2000/svg">
<path d="M14.8633 15H8.49609V13.3008L10 12.7637L9.52148 11.2988H5.07812L4.58008 12.7441L6.14258 13.3008V15H0.0976562V13.3008L1.5625 12.7441L5.95703 0.957031L9.16016 0.898438L13.457 12.7441L14.8633 13.3008V15ZM7.36328 4.42383L5.78125 9.16016H8.85742L7.36328 4.42383ZM15.7617 17.1973C15.7617 16.6895 15.918 16.2565 16.2305 15.8984C16.543 15.5404 16.8913 15.2604 17.2754 15.0586C17.666 14.8568 17.8613 14.7721 17.8613 14.8047C17.8613 14.8307 17.7507 14.8014 17.5293 14.7168C17.3079 14.6257 17.1061 14.4824 16.9238 14.2871C16.748 14.0853 16.6602 13.8151 16.6602 13.4766C16.6602 13.0664 17.0085 12.3145 17.7051 11.2207C17.321 10.9668 16.9661 10.5924 16.6406 10.0977C16.3216 9.60286 16.1621 8.93555 16.1621 8.0957C16.1621 6.77409 16.6048 5.76172 17.4902 5.05859C18.3757 4.35547 19.5312 4.00391 20.957 4.00391C21.849 4.00391 22.6367 4.16341 23.3203 4.48242L26.7578 4.4043V5.99609L25.1172 6.2793C25.1302 6.33138 25.1888 6.4974 25.293 6.77734C25.4036 7.05729 25.459 7.41862 25.459 7.86133C25.459 9.24805 25.026 10.2799 24.1602 10.957C23.2943 11.6276 22.1289 11.9629 20.6641 11.9629C20.4102 11.9629 20.1855 11.9466 19.9902 11.9141C19.7949 11.875 19.6777 11.8555 19.6387 11.8555L19.5605 13.2031H22.5195C23.8021 13.2031 24.7884 13.4701 25.4785 14.0039C26.1751 14.5378 26.5234 15.3027 26.5234 16.2988C26.5234 17.4447 26.0514 18.3626 25.1074 19.0527C24.1699 19.7493 22.7734 20.0977 20.918 20.0977C19.2383 20.0977 17.959 19.8763 17.0801 19.4336C16.2012 18.9974 15.7617 18.252 15.7617 17.1973ZM20.8594 6.06445C20.2734 6.06445 19.8438 6.2207 19.5703 6.5332C19.2969 6.8457 19.1602 7.32096 19.1602 7.95898C19.1602 8.58398 19.2904 9.07552 19.5508 9.43359C19.8112 9.78516 20.2148 9.96094 20.7617 9.96094C21.3737 9.96094 21.8099 9.80143 22.0703 9.48242C22.3307 9.16341 22.4609 8.6556 22.4609 7.95898C22.4609 7.32096 22.3307 6.8457 22.0703 6.5332C21.8099 6.2207 21.4062 6.06445 20.8594 6.06445ZM19.6191 15.4004C19.5671 15.4264 19.4629 15.4883 19.3066 15.5859C19.1569 15.6901 19.0104 15.8366 18.8672 16.0254C18.7305 16.2207 18.6621 16.4453 18.6621 16.6992C18.6621 17.181 18.8574 17.5 19.248 17.6562C19.6452 17.819 20.2832 17.9004 21.1621 17.9004C22.0671 17.9004 22.7181 17.793 23.1152 17.5781C23.5189 17.3633 23.7207 17.0182 23.7207 16.543C23.7207 16.1133 23.5645 15.8138 23.252 15.6445C22.9395 15.4818 22.4284 15.4004 21.7188 15.4004H19.6191ZM32.2461 5.57617C32.2461 5.55013 32.4023 5.39714 32.7148 5.11719C33.0273 4.83724 33.3887 4.58333 33.7988 4.35547C34.2155 4.12109 34.6257 4.00391 35.0293 4.00391C35.3483 4.00391 35.6478 4.02995 35.9277 4.08203C36.2077 4.13411 36.4258 4.18945 36.582 4.24805C36.7448 4.30664 36.8457 4.34245 36.8848 4.35547L36.7285 8.20312H34.9316L34.6289 6.50391C34.2839 6.50391 33.9486 6.58854 33.623 6.75781C33.304 6.92057 33.0306 7.10286 32.8027 7.30469C32.5814 7.5 32.4707 7.60417 32.4707 7.61719V12.9004L34.4727 13.3984V15H27.8711V13.3984L29.4727 12.9004V6.39648L27.8711 5.89844V4.29688L32.0703 4.19922L32.2461 5.57617ZM43.0957 4.00391C44.7038 4.00391 45.944 4.47266 46.8164 5.41016C47.6953 6.34766 48.1348 7.67904 48.1348 9.4043C48.1348 10.5892 47.9134 11.6178 47.4707 12.4902C47.0345 13.3626 46.416 14.0332 45.6152 14.502C44.8145 14.9642 43.8737 15.1953 42.793 15.1953C39.3945 15.1953 37.6953 13.3626 37.6953 9.69727C37.6953 8.51237 37.9167 7.49349 38.3594 6.64062C38.8086 5.78776 39.4401 5.13672 40.2539 4.6875C41.0677 4.23177 42.015 4.00391 43.0957 4.00391ZM42.9883 6.39648C42.2331 6.39648 41.6764 6.64062 41.3184 7.12891C40.9668 7.61719 40.791 8.44076 40.791 9.59961C40.791 10.7064 40.957 11.5169 41.2891 12.0312C41.6276 12.5456 42.1615 12.8027 42.8906 12.8027C43.6263 12.8027 44.1667 12.5456 44.5117 12.0312C44.8568 11.5169 45.0293 10.6738 45.0293 9.50195C45.0293 8.46029 44.8665 7.68229 44.541 7.16797C44.2155 6.65365 43.6979 6.39648 42.9883 6.39648ZM58.8086 3.47656C58.7565 3.46354 58.6328 3.43099 58.4375 3.37891C58.2422 3.32682 57.9785 3.27799 57.6465 3.23242C57.3145 3.18685 56.9564 3.16406 56.5723 3.16406C55.5046 3.16406 54.6875 3.57096 54.1211 4.38477C53.5547 5.19206 53.2715 6.41602 53.2715 8.05664C53.2715 9.63216 53.5645 10.7943 54.1504 11.543C54.7363 12.2852 55.5762 12.6562 56.6699 12.6562C57.2559 12.6562 57.832 12.5553 58.3984 12.3535C58.9648 12.1452 59.4499 11.9173 59.8535 11.6699C60.2637 11.4225 60.4688 11.2858 60.4688 11.2598L61.5723 13.0566C61.5723 13.0957 61.3184 13.3105 60.8105 13.7012C60.3027 14.0853 59.6615 14.4401 58.8867 14.7656C58.112 15.0846 57.2591 15.2441 56.3281 15.2441C54.2904 15.2441 52.7148 14.6419 51.6016 13.4375C50.4883 12.2266 49.9316 10.4688 49.9316 8.16406C49.9316 6.61458 50.2083 5.27669 50.7617 4.15039C51.3151 3.02409 52.0964 2.16146 53.1055 1.5625C54.1211 0.963542 55.3092 0.664062 56.6699 0.664062C57.3926 0.664062 58.0957 0.735677 58.7793 0.878906C59.4629 1.01562 60.0586 1.16862 60.5664 1.33789C61.0742 1.50065 61.3281 1.58854 61.3281 1.60156L61.2305 5.40039H59.2676L58.8086 3.47656ZM68.2715 4.00391C69.8796 4.00391 71.1198 4.47266 71.9922 5.41016C72.8711 6.34766 73.3105 7.67904 73.3105 9.4043C73.3105 10.5892 73.0892 11.6178 72.6465 12.4902C72.2103 13.3626 71.5918 14.0332 70.791 14.502C69.9902 14.9642 69.0495 15.1953 67.9688 15.1953C64.5703 15.1953 62.8711 13.3626 62.8711 9.69727C62.8711 8.51237 63.0924 7.49349 63.5352 6.64062C63.9844 5.78776 64.6159 5.13672 65.4297 4.6875C66.2435 4.23177 67.1908 4.00391 68.2715 4.00391ZM68.1641 6.39648C67.4089 6.39648 66.8522 6.64062 66.4941 7.12891C66.1426 7.61719 65.9668 8.44076 65.9668 9.59961C65.9668 10.7064 66.1328 11.5169 66.4648 12.0312C66.8034 12.5456 67.3372 12.8027 68.0664 12.8027C68.8021 12.8027 69.3424 12.5456 69.6875 12.0312C70.0326 11.5169 70.2051 10.6738 70.2051 9.50195C70.2051 8.46029 70.0423 7.68229 69.7168 7.16797C69.3913 6.65365 68.8737 6.39648 68.1641 6.39648ZM79.082 5.57617C79.082 5.55013 79.2904 5.40039 79.707 5.12695C80.1302 4.85352 80.612 4.60612 81.1523 4.38477C81.6927 4.1569 82.2298 4.04297 82.7637 4.04297C83.7207 4.04297 84.4661 4.35872 85 4.99023C85.5339 5.62174 85.8008 6.49089 85.8008 7.59766V12.9004L87.207 13.3984V15H81.6992V13.3984L82.8027 12.9004V8.14453C82.8027 7.67578 82.679 7.29167 82.4316 6.99219C82.1842 6.69271 81.8555 6.54297 81.4453 6.54297C81.0742 6.54297 80.7292 6.6276 80.4102 6.79688C80.0977 6.95964 79.834 7.14193 79.6191 7.34375C79.4108 7.53906 79.3066 7.64974 79.3066 7.67578V12.9004L80.4004 13.3984V15H74.707V13.3984L76.3086 12.9004V6.39648L74.707 5.89844V4.29688L78.9453 4.19922L79.082 5.57617ZM91.5137 10.2637C91.5658 11.0645 91.8066 11.6895 92.2363 12.1387C92.6725 12.5814 93.2389 12.8027 93.9355 12.8027C94.4303 12.8027 94.9251 12.7344 95.4199 12.5977C95.9212 12.4544 96.3346 12.3112 96.6602 12.168C96.9922 12.0182 97.2038 11.9141 97.2949 11.8555L98.1543 13.5156C98.1543 13.5417 97.9199 13.7077 97.4512 14.0137C96.9889 14.3132 96.4193 14.5866 95.7422 14.834C95.0716 15.0749 94.3555 15.1953 93.5938 15.1953C91.901 15.1953 90.612 14.7266 89.7266 13.7891C88.8411 12.8516 88.3984 11.5234 88.3984 9.80469C88.3984 8.64583 88.61 7.63021 89.0332 6.75781C89.4629 5.87891 90.0781 5.20182 90.8789 4.72656C91.6797 4.24479 92.6302 4.00391 93.7305 4.00391C95.1953 4.00391 96.3184 4.42383 97.0996 5.26367C97.8809 6.10352 98.2715 7.24935 98.2715 8.70117C98.2715 9.02018 98.2552 9.32943 98.2227 9.62891C98.1901 9.92839 98.1673 10.1172 98.1543 10.1953L91.5137 10.2637ZM93.5352 6.39648C92.9883 6.39648 92.5423 6.58203 92.1973 6.95312C91.8522 7.31771 91.6374 7.79948 91.5527 8.39844H95.1758C95.1758 7.79948 95.0423 7.31771 94.7754 6.95312C94.5085 6.58203 94.0951 6.39648 93.5352 6.39648ZM109.375 13.4961C108.926 13.8997 108.337 14.2839 107.607 14.6484C106.885 15.013 106.042 15.1953 105.078 15.1953C103.438 15.1953 102.161 14.7168 101.25 13.7598C100.339 12.8027 99.8828 11.4681 99.8828 9.75586C99.8828 7.97201 100.365 6.56901 101.328 5.54688C102.298 4.51823 103.649 4.00391 105.381 4.00391C105.889 4.00391 106.4 4.05599 106.914 4.16016C107.435 4.26432 107.868 4.37174 108.213 4.48242C108.564 4.58659 108.786 4.6582 108.877 4.69727L108.779 7.97852H106.982L106.699 6.5625C106.634 6.54948 106.471 6.52018 106.211 6.47461C105.951 6.42253 105.654 6.39648 105.322 6.39648C104.587 6.39648 104.01 6.64714 103.594 7.14844C103.184 7.64974 102.979 8.38542 102.979 9.35547C102.979 10.4622 103.187 11.3151 103.604 11.9141C104.027 12.5065 104.652 12.8027 105.479 12.8027C105.999 12.8027 106.455 12.7246 106.846 12.5684C107.243 12.4056 107.575 12.2396 107.842 12.0703C108.109 11.901 108.288 11.7904 108.379 11.7383L109.375 13.4961ZM114.805 15.1953C113.724 15.1953 112.959 14.86 112.51 14.1895C112.067 13.5189 111.846 12.5553 111.846 11.2988V6.69922H109.99V4.75586L111.846 4.50195V1.73828L114.844 1.20117V4.50195H117.646V6.69922H114.844V11.1035C114.844 11.7676 114.915 12.2331 115.059 12.5C115.208 12.7669 115.492 12.9004 115.908 12.9004C116.149 12.9004 116.429 12.8483 116.748 12.7441C117.067 12.6335 117.314 12.5326 117.49 12.4414L118.203 13.9648C117.083 14.7917 115.951 15.2018 114.805 15.1953ZM125.557 13.7012C125.557 13.7272 125.384 13.8737 125.039 14.1406C124.694 14.4076 124.281 14.6517 123.799 14.873C123.317 15.0879 122.822 15.1953 122.314 15.1953C121.338 15.1953 120.573 14.9251 120.02 14.3848C119.473 13.8379 119.199 13.0632 119.199 12.0605C119.199 10.9147 119.609 10.0781 120.43 9.55078C121.25 9.02344 122.445 8.75977 124.014 8.75977H125.42V7.65625C125.42 6.67969 124.906 6.19466 123.877 6.20117C123.571 6.20117 123.288 6.22396 123.027 6.26953C122.767 6.3151 122.559 6.36393 122.402 6.41602C122.253 6.46159 122.158 6.49089 122.119 6.50391L121.816 7.76367H120.02L119.883 4.80469C120 4.76562 120.286 4.68099 120.742 4.55078C121.204 4.42057 121.755 4.29688 122.393 4.17969C123.037 4.0625 123.646 4.00391 124.219 4.00391C125.247 4.00391 126.064 4.13411 126.67 4.39453C127.275 4.64844 127.718 5.0651 127.998 5.64453C128.278 6.21745 128.418 6.98893 128.418 7.95898V12.9004L129.922 13.2617V14.8633L125.918 15L125.557 13.7012ZM122.1 11.7578C122.1 12.1484 122.201 12.4479 122.402 12.6562C122.611 12.8581 122.904 12.959 123.281 12.959C123.6 12.959 123.916 12.8743 124.229 12.7051C124.541 12.5293 124.805 12.3503 125.02 12.168C125.234 11.9792 125.368 11.8555 125.42 11.7969V10.459H124.277C123.503 10.459 122.946 10.5632 122.607 10.7715C122.269 10.9798 122.1 11.3086 122.1 11.7578Z" fill="#155C00"/>
</svg>
